<?xml version="1.0" standalone="no"?>
<!DOCTYPE svg PUBLIC "-//W3C//DTD SVG 20010904//EN"
 "http://www.w3.org/TR/2001/REC-SVG-20010904/DTD/svg10.dtd">
<svg version="1.0" xmlns="http://www.w3.org/2000/svg"
 width="2000.000000pt" height="800.000000pt" viewBox="0 0 2000.000000 800.000000"
 preserveAspectRatio="xMidYMid meet">

<g transform="translate(0.000000,800.000000) scale(0.100000,-0.100000)"
fill="#000000" stroke="none">
<path d="M10295 6349 c-157 -16 -350 -71 -477 -135 -92 -46 -199 -124 -286
-208 -227 -218 -315 -413 -352 -786 -8 -82 -10 -495 -8 -1440 l4 -1325 26
-115 c47 -207 114 -360 219 -500 150 -200 332 -313 618 -385 374 -94 849 -69
1326 71 194 57 279 88 283 105 3 16 -106 690 -113 697 -2 2 -73 -14 -157 -37
-283 -75 -649 -141 -788 -141 -98 0 -318 38 -374 63 -90 43 -207 157 -243 237
-49 110 -47 63 -51 1365 -2 861 0 1239 8 1285 28 163 139 307 300 388 112 56
197 72 374 72 210 0 395 -27 580 -86 44 -13 82 -21 86 -17 9 11 213 674 208
677 -10 10 -77 40 -166 75 -308 123 -682 175 -1017 140z"/>
<path d="M12230 3880 l0 -2420 405 0 405 0 0 933 1 932 23 29 24 28 131 -193
c73 -107 367 -539 654 -961 l521 -768 468 0 c257 0 468 2 468 4 0 3 -235 344
-523 758 -1086 1564 -1267 1826 -1267 1836 0 5 342 510 760 1122 418 611 760
1114 760 1116 0 2 -204 4 -452 4 l-453 -1 -555 -827 -555 -828 -3 828 -2 828
-405 0 -405 0 0 -2420z"/>
<path d="M1550 3875 l0 -2415 380 0 380 0 0 1065 0 1065 730 0 730 0 0 -1065
0 -1065 375 0 375 0 0 2415 0 2415 -375 0 -375 0 0 -990 0 -990 -730 0 -730 0
0 990 0 990 -380 0 -380 0 0 -2415z"/>
<path d="M6346 6273 c-3 -10 -199 -846 -436 -1858 -621 -2651 -690 -2945 -690
-2950 0 -3 191 -5 424 -5 l424 0 11 48 c6 26 65 301 131 612 66 311 122 575
125 588 l5 22 557 -2 558 -3 141 -630 141 -630 450 -3 451 -2 -35 137 c-19 76
-293 1160 -609 2410 -316 1249 -574 2274 -574 2277 0 3 -240 6 -534 6 -501 0
-535 -1 -540 -17z m733 -1994 c105 -399 191 -730 191 -737 0 -9 -91 -12 -376
-12 -353 0 -376 1 -372 18 2 9 83 344 179 744 96 400 177 724 180 720 4 -4 93
-333 198 -733z"/>
<path d="M16626 6273 c-3 -10 -255 -1087 -561 -2393 -306 -1306 -559 -2385
-562 -2397 l-5 -23 426 0 426 0 5 23 c3 12 62 288 131 612 68 325 127 600 131
613 l5 22 554 0 c435 0 556 -3 559 -12 3 -7 67 -292 143 -633 l139 -620 450
-3 451 -2 -65 257 c-35 142 -309 1227 -609 2411 -299 1184 -544 2155 -544
2157 0 3 -240 5 -534 5 -501 0 -535 -1 -540 -17z m733 -1993 c105 -399 191
-731 191 -737 0 -10 -82 -13 -376 -13 -353 0 -376 1 -372 18 2 9 83 344 179
744 96 400 177 724 180 720 4 -4 93 -333 198 -732z"/>
</g>
</svg>
